<?xml version="1.0" encoding="UTF-8" standalone="no"?>
<!DOCTYPE svg PUBLIC "-//W3C//DTD SVG 1.1//EN"
 "http://www.w3.org/Graphics/SVG/1.1/DTD/svg11.dtd">
<!-- Generated by graphviz version 2.47.0 (20210316.0004)
 -->
<!-- Title: dependencies Pages: 1 -->
<svg width="2184pt" height="284pt"
 viewBox="0.00 0.00 2184.00 284.00" xmlns="http://www.w3.org/2000/svg" xmlns:xlink="http://www.w3.org/1999/xlink">
<g id="graph0" class="graph" transform="scale(1 1) rotate(0) translate(4 280)">
<title>dependencies</title>
<polygon fill="white" stroke="transparent" points="-4,4 -4,-280 2180,-280 2180,4 -4,4"/>
<text text-anchor="start" x="1067.01" y="-42.4" font-family="Times-12" font-weight="bold" font-size="14.00">Legend</text>
<polygon fill="#ffffb3" stroke="transparent" points="854,-10 854,-30 874,-30 874,-10 854,-10"/>
<text text-anchor="start" x="877.63" y="-15.4" font-family="Times-12" font-size="14.00"> &#160;Declarations</text>
<polygon fill="#8dd3c7" stroke="transparent" points="967,-10 967,-30 987,-30 987,-10 967,-10"/>
<text text-anchor="start" x="990.73" y="-15.4" font-family="Times-12" font-size="14.00"> &#160;Module</text>
<polygon fill="#80b1d3" stroke="transparent" points="1053,-10 1053,-30 1073,-30 1073,-10 1053,-10"/>
<text text-anchor="start" x="1076.78" y="-15.4" font-family="Times-12" font-size="14.00"> &#160;Bootstrap</text>
<polygon fill="#fdb462" stroke="transparent" points="1150,-10 1150,-30 1170,-30 1170,-10 1150,-10"/>
<text text-anchor="start" x="1173.67" y="-15.4" font-family="Times-12" font-size="14.00"> &#160;Providers</text>
<polygon fill="#fb8072" stroke="transparent" points="1246,-10 1246,-30 1266,-30 1266,-10 1246,-10"/>
<text text-anchor="start" x="1269.73" y="-15.4" font-family="Times-12" font-size="14.00"> &#160;Exports</text>
<g id="clust1" class="cluster">
<title>cluster_AppModule</title>
<polygon fill="none" stroke="black" stroke-dasharray="1,5" points="8,-70 8,-268 2168,-268 2168,-70 8,-70"/>
</g>
<g id="clust2" class="cluster">
<title>cluster_AppModule_declarations</title>
<polygon fill="none" stroke="black" points="332,-78 332,-130 2160,-130 2160,-78 332,-78"/>
</g>
<g id="clust17" class="cluster">
<title>cluster_AppModule_bootstrap</title>
<polygon fill="none" stroke="black" points="947,-208 947,-260 1071,-260 1071,-208 947,-208"/>
</g>
<g id="clust18" class="cluster">
<title>cluster_AppModule_providers</title>
<polygon fill="none" stroke="black" points="16,-78 16,-130 324,-130 324,-78 16,-78"/>
</g>
<!-- AddCaretakerComponent -->
<g id="node1" class="node">
<title>AddCaretakerComponent</title>
<polygon fill="#ffffb3" stroke="black" points="2151.85,-122 1992.15,-122 1992.15,-86 2151.85,-86 2151.85,-122"/>
<text text-anchor="middle" x="2072" y="-99.8" font-family="Times,serif" font-size="14.00">AddCaretakerComponent</text>
</g>
<!-- AppModule -->
<g id="node13" class="node">
<title>AppModule</title>
<polygon fill="#8dd3c7" stroke="black" points="1050.66,-187 1047.66,-191 1026.66,-191 1023.66,-187 967.34,-187 967.34,-151 1050.66,-151 1050.66,-187"/>
<text text-anchor="middle" x="1009" y="-164.8" font-family="Times,serif" font-size="14.00">AppModule</text>
</g>
<!-- AddCaretakerComponent&#45;&gt;AppModule -->
<g id="edge1" class="edge">
<title>AddCaretakerComponent&#45;&gt;AppModule</title>
<path fill="none" stroke="black" d="M2072,-122.09C2072,-145.13 2072,-182 2072,-182 2072,-182 1060.67,-182 1060.67,-182"/>
<polygon fill="black" stroke="black" points="1060.67,-178.5 1050.67,-182 1060.67,-185.5 1060.67,-178.5"/>
</g>
<!-- AppComponent -->
<g id="node2" class="node">
<title>AppComponent</title>
<polygon fill="#ffffb3" stroke="black" points="1973.94,-122 1868.06,-122 1868.06,-86 1973.94,-86 1973.94,-122"/>
<text text-anchor="middle" x="1921" y="-99.8" font-family="Times,serif" font-size="14.00">AppComponent</text>
</g>
<!-- AppComponent&#45;&gt;AppModule -->
<g id="edge2" class="edge">
<title>AppComponent&#45;&gt;AppModule</title>
<path fill="none" stroke="black" d="M1921,-122.04C1921,-143.66 1921,-177 1921,-177 1921,-177 1060.86,-177 1060.86,-177"/>
<polygon fill="black" stroke="black" points="1060.86,-173.5 1050.86,-177 1060.86,-180.5 1060.86,-173.5"/>
</g>
<!-- CaretakerCardComponent -->
<g id="node3" class="node">
<title>CaretakerCardComponent</title>
<polygon fill="#ffffb3" stroke="black" points="1850.45,-122 1687.55,-122 1687.55,-86 1850.45,-86 1850.45,-122"/>
<text text-anchor="middle" x="1769" y="-99.8" font-family="Times,serif" font-size="14.00">CaretakerCardComponent</text>
</g>
<!-- CaretakerCardComponent&#45;&gt;AppModule -->
<g id="edge3" class="edge">
<title>CaretakerCardComponent&#45;&gt;AppModule</title>
<path fill="none" stroke="black" d="M1769,-122.22C1769,-142.37 1769,-172 1769,-172 1769,-172 1060.67,-172 1060.67,-172"/>
<polygon fill="black" stroke="black" points="1060.67,-168.5 1050.67,-172 1060.67,-175.5 1060.67,-168.5"/>
</g>
<!-- CaretakerDetailComponent -->
<g id="node4" class="node">
<title>CaretakerDetailComponent</title>
<polygon fill="#ffffb3" stroke="black" points="1669.95,-122 1500.05,-122 1500.05,-86 1669.95,-86 1669.95,-122"/>
<text text-anchor="middle" x="1585" y="-99.8" font-family="Times,serif" font-size="14.00">CaretakerDetailComponent</text>
</g>
<!-- CaretakerDetailComponent&#45;&gt;AppModule -->
<g id="edge4" class="edge">
<title>CaretakerDetailComponent&#45;&gt;AppModule</title>
<path fill="none" stroke="black" d="M1585,-122.22C1585,-140.83 1585,-167 1585,-167 1585,-167 1060.89,-167 1060.89,-167"/>
<polygon fill="black" stroke="black" points="1060.89,-163.5 1050.89,-167 1060.89,-170.5 1060.89,-163.5"/>
</g>
<!-- CaretakerPreviewComponent -->
<g id="node5" class="node">
<title>CaretakerPreviewComponent</title>
<polygon fill="#ffffb3" stroke="black" points="1481.61,-122 1300.39,-122 1300.39,-86 1481.61,-86 1481.61,-122"/>
<text text-anchor="middle" x="1391" y="-99.8" font-family="Times,serif" font-size="14.00">CaretakerPreviewComponent</text>
</g>
<!-- CaretakerPreviewComponent&#45;&gt;AppModule -->
<g id="edge5" class="edge">
<title>CaretakerPreviewComponent&#45;&gt;AppModule</title>
<path fill="none" stroke="black" d="M1391,-122.03C1391,-139.06 1391,-162 1391,-162 1391,-162 1060.97,-162 1060.97,-162"/>
<polygon fill="black" stroke="black" points="1060.97,-158.5 1050.97,-162 1060.97,-165.5 1060.97,-158.5"/>
</g>
<!-- CaretakersListComponent -->
<g id="node6" class="node">
<title>CaretakersListComponent</title>
<polygon fill="#ffffb3" stroke="black" points="1282.46,-122 1119.54,-122 1119.54,-86 1282.46,-86 1282.46,-122"/>
<text text-anchor="middle" x="1201" y="-99.8" font-family="Times,serif" font-size="14.00">CaretakersListComponent</text>
</g>
<!-- CaretakersListComponent&#45;&gt;AppModule -->
<g id="edge6" class="edge">
<title>CaretakersListComponent&#45;&gt;AppModule</title>
<path fill="none" stroke="black" d="M1201,-122.24C1201,-137.57 1201,-157 1201,-157 1201,-157 1060.66,-157 1060.66,-157"/>
<polygon fill="black" stroke="black" points="1060.66,-153.5 1050.66,-157 1060.66,-160.5 1060.66,-153.5"/>
</g>
<!-- FilterPipe -->
<g id="node7" class="node">
<title>FilterPipe</title>
<polygon fill="#ffffb3" stroke="black" points="1101.72,-122 1030.28,-122 1030.28,-86 1101.72,-86 1101.72,-122"/>
<text text-anchor="middle" x="1066" y="-99.8" font-family="Times,serif" font-size="14.00">FilterPipe</text>
</g>
<!-- FilterPipe&#45;&gt;AppModule -->
<g id="edge7" class="edge">
<title>FilterPipe&#45;&gt;AppModule</title>
<path fill="none" stroke="black" d="M1040.61,-122.11C1040.61,-122.11 1040.61,-140.99 1040.61,-140.99"/>
<polygon fill="black" stroke="black" points="1037.11,-140.99 1040.61,-150.99 1044.11,-140.99 1037.11,-140.99"/>
</g>
<!-- FooterComponent -->
<g id="node8" class="node">
<title>FooterComponent</title>
<polygon fill="#ffffb3" stroke="black" points="1011.88,-122 894.12,-122 894.12,-86 1011.88,-86 1011.88,-122"/>
<text text-anchor="middle" x="953" y="-99.8" font-family="Times,serif" font-size="14.00">FooterComponent</text>
</g>
<!-- FooterComponent&#45;&gt;AppModule -->
<g id="edge8" class="edge">
<title>FooterComponent&#45;&gt;AppModule</title>
<path fill="none" stroke="black" d="M989.56,-122.11C989.56,-122.11 989.56,-140.99 989.56,-140.99"/>
<polygon fill="black" stroke="black" points="986.06,-140.99 989.56,-150.99 993.06,-140.99 986.06,-140.99"/>
</g>
<!-- NavbarComponent -->
<g id="node9" class="node">
<title>NavbarComponent</title>
<polygon fill="#ffffb3" stroke="black" points="876.03,-122 753.97,-122 753.97,-86 876.03,-86 876.03,-122"/>
<text text-anchor="middle" x="815" y="-99.8" font-family="Times,serif" font-size="14.00">NavbarComponent</text>
</g>
<!-- NavbarComponent&#45;&gt;AppModule -->
<g id="edge9" class="edge">
<title>NavbarComponent&#45;&gt;AppModule</title>
<path fill="none" stroke="black" d="M815,-122.24C815,-137.57 815,-157 815,-157 815,-157 956.9,-157 956.9,-157"/>
<polygon fill="black" stroke="black" points="956.9,-160.5 966.9,-157 956.9,-153.5 956.9,-160.5"/>
</g>
<!-- SortPipe -->
<g id="node10" class="node">
<title>SortPipe</title>
<polygon fill="#ffffb3" stroke="black" points="736.22,-122 671.78,-122 671.78,-86 736.22,-86 736.22,-122"/>
<text text-anchor="middle" x="704" y="-99.8" font-family="Times,serif" font-size="14.00">SortPipe</text>
</g>
<!-- SortPipe&#45;&gt;AppModule -->
<g id="edge10" class="edge">
<title>SortPipe&#45;&gt;AppModule</title>
<path fill="none" stroke="black" d="M704,-122.03C704,-139.06 704,-162 704,-162 704,-162 957.23,-162 957.23,-162"/>
<polygon fill="black" stroke="black" points="957.23,-165.5 967.23,-162 957.23,-158.5 957.23,-165.5"/>
</g>
<!-- UserLoginComponent -->
<g id="node11" class="node">
<title>UserLoginComponent</title>
<polygon fill="#ffffb3" stroke="black" points="653.7,-122 512.3,-122 512.3,-86 653.7,-86 653.7,-122"/>
<text text-anchor="middle" x="583" y="-99.8" font-family="Times,serif" font-size="14.00">UserLoginComponent</text>
</g>
<!-- UserLoginComponent&#45;&gt;AppModule -->
<g id="edge11" class="edge">
<title>UserLoginComponent&#45;&gt;AppModule</title>
<path fill="none" stroke="black" d="M583,-122.22C583,-140.83 583,-167 583,-167 583,-167 956.99,-167 956.99,-167"/>
<polygon fill="black" stroke="black" points="956.99,-170.5 966.99,-167 956.99,-163.5 956.99,-170.5"/>
</g>
<!-- UserRegisterComponent -->
<g id="node12" class="node">
<title>UserRegisterComponent</title>
<polygon fill="#ffffb3" stroke="black" points="494.41,-122 339.59,-122 339.59,-86 494.41,-86 494.41,-122"/>
<text text-anchor="middle" x="417" y="-99.8" font-family="Times,serif" font-size="14.00">UserRegisterComponent</text>
</g>
<!-- UserRegisterComponent&#45;&gt;AppModule -->
<g id="edge12" class="edge">
<title>UserRegisterComponent&#45;&gt;AppModule</title>
<path fill="none" stroke="black" d="M417,-122.22C417,-142.37 417,-172 417,-172 417,-172 956.9,-172 956.9,-172"/>
<polygon fill="black" stroke="black" points="956.9,-175.5 966.9,-172 956.9,-168.5 956.9,-175.5"/>
</g>
<!-- AppComponent  -->
<g id="node14" class="node">
<title>AppComponent </title>
<polygon fill="#80b1d3" stroke="black" points="1063.44,-252 954.56,-252 954.56,-216 1063.44,-216 1063.44,-252"/>
<text text-anchor="middle" x="1009" y="-229.8" font-family="Times,serif" font-size="14.00">AppComponent </text>
</g>
<!-- AppModule&#45;&gt;AppComponent  -->
<g id="edge13" class="edge">
<title>AppModule&#45;&gt;AppComponent </title>
<path fill="none" stroke="black" stroke-dasharray="1,5" d="M1009,-187.11C1009,-187.11 1009,-205.99 1009,-205.99"/>
<polygon fill="black" stroke="black" points="1005.5,-205.99 1009,-215.99 1012.5,-205.99 1005.5,-205.99"/>
</g>
<!-- AuthService -->
<g id="node15" class="node">
<title>AuthService</title>
<ellipse fill="#fdb462" stroke="black" cx="257" cy="-104" rx="59.11" ry="18"/>
<text text-anchor="middle" x="257" y="-99.8" font-family="Times,serif" font-size="14.00">AuthService</text>
</g>
<!-- AuthService&#45;&gt;AppModule -->
<g id="edge14" class="edge">
<title>AuthService&#45;&gt;AppModule</title>
<path fill="none" stroke="black" d="M257,-122.04C257,-143.66 257,-177 257,-177 257,-177 957.23,-177 957.23,-177"/>
<polygon fill="black" stroke="black" points="957.23,-180.5 967.23,-177 957.23,-173.5 957.23,-180.5"/>
</g>
<!-- CaretakerService -->
<g id="node16" class="node">
<title>CaretakerService</title>
<ellipse fill="#fdb462" stroke="black" cx="102" cy="-104" rx="77.54" ry="18"/>
<text text-anchor="middle" x="102" y="-99.8" font-family="Times,serif" font-size="14.00">CaretakerService</text>
</g>
<!-- CaretakerService&#45;&gt;AppModule -->
<g id="edge15" class="edge">
<title>CaretakerService&#45;&gt;AppModule</title>
<path fill="none" stroke="black" d="M102,-122.09C102,-145.13 102,-182 102,-182 102,-182 957.07,-182 957.07,-182"/>
<polygon fill="black" stroke="black" points="957.07,-185.5 967.07,-182 957.07,-178.5 957.07,-185.5"/>
</g>
</g>
</svg>
