<?xml version="1.0" encoding="UTF-8" standalone="no"?>
<!DOCTYPE svg PUBLIC "-//W3C//DTD SVG 1.1//EN"
 "http://www.w3.org/Graphics/SVG/1.1/DTD/svg11.dtd">
<!-- Generated by graphviz version 2.47.0 (20210316.0004)
 -->
<!-- Title: dependencies Pages: 1 -->
<svg width="2184pt" height="284pt"
 viewBox="0.00 0.00 2184.00 284.00" xmlns="http://www.w3.org/2000/svg" xmlns:xlink="http://www.w3.org/1999/xlink">
<g id="graph0" class="graph" transform="scale(1 1) rotate(0) translate(4 280)">
<title>dependencies</title>
<polygon fill="white" stroke="transparent" points="-4,4 -4,-280 2180,-280 2180,4 -4,4"/>
<text text-anchor="start" x="1067.01" y="-42.4" font-family="Times-12" font-weight="bold" font-size="14.00">Legend</text>
<polygon fill="#ffffb3" stroke="transparent" points="854,-10 854,-30 874,-30 874,-10 854,-10"/>
<text text-anchor="start" x="877.63" y="-15.4" font-family="Times-12" font-size="14.00"> &#160;Declarations</text>
<polygon fill="#8dd3c7" stroke="transparent" points="967,-10 967,-30 987,-30 987,-10 967,-10"/>
<text text-anchor="start" x="990.73" y="-15.4" font-family="Times-12" font-size="14.00"> &#160;Module</text>
<polygon fill="#80b1d3" stroke="transparent" points="1053,-10 1053,-30 1073,-30 1073,-10 1053,-10"/>
<text text-anchor="start" x="1076.78" y="-15.4" font-family="Times-12" font-size="14.00"> &#160;Bootstrap</text>
<polygon fill="#fdb462" stroke="transparent" points="1150,-10 1150,-30 1170,-30 1170,-10 1150,-10"/>
<text text-anchor="start" x="1173.67" y="-15.4" font-family="Times-12" font-size="14.00"> &#160;Providers</text>
<polygon fill="#fb8072" stroke="transparent" points="1246,-10 1246,-30 1266,-30 1266,-10 1246,-10"/>
<text text-anchor="start" x="1269.73" y="-15.4" font-family="Times-12" font-size="14.00"> &#160;Exports</text>
<g id="clust1" class="cluster">
<title>cluster_AppModule</title>
<polygon fill="none" stroke="black" stroke-dasharray="1,5" points="8,-70 8,-268 2168,-268 2168,-70 8,-70"/>
</g>
<g id="clust18" class="cluster">
<title>cluster_AppModule_providers</title>
<polygon fill="none" stroke="black" points="1852,-78 1852,-130 2160,-130 2160,-78 1852,-78"/>
</g>
<g id="clust2" class="cluster">
<title>cluster_AppModule_declarations</title>
<polygon fill="none" stroke="black" points="16,-78 16,-130 1844,-130 1844,-78 16,-78"/>
</g>
<g id="clust17" class="cluster">
<title>cluster_AppModule_bootstrap</title>
<polygon fill="none" stroke="black" points="918,-208 918,-260 1042,-260 1042,-208 918,-208"/>
</g>
<!-- AddCaretakerComponent -->
<g id="node1" class="node">
<title>AddCaretakerComponent</title>
<polygon fill="#ffffb3" stroke="black" points="1835.85,-122 1676.15,-122 1676.15,-86 1835.85,-86 1835.85,-122"/>
<text text-anchor="middle" x="1756" y="-99.8" font-family="Times,serif" font-size="14.00">AddCaretakerComponent</text>
</g>
<!-- AppModule -->
<g id="node13" class="node">
<title>AppModule</title>
<polygon fill="#8dd3c7" stroke="black" points="1021.66,-187 1018.66,-191 997.66,-191 994.66,-187 938.34,-187 938.34,-151 1021.66,-151 1021.66,-187"/>
<text text-anchor="middle" x="980" y="-164.8" font-family="Times,serif" font-size="14.00">AppModule</text>
</g>
<!-- AddCaretakerComponent&#45;&gt;AppModule -->
<g id="edge1" class="edge">
<title>AddCaretakerComponent&#45;&gt;AppModule</title>
<path fill="none" stroke="black" d="M1756,-122.22C1756,-142.37 1756,-172 1756,-172 1756,-172 1031.72,-172 1031.72,-172"/>
<polygon fill="black" stroke="black" points="1031.72,-168.5 1021.72,-172 1031.72,-175.5 1031.72,-168.5"/>
</g>
<!-- AppComponent -->
<g id="node2" class="node">
<title>AppComponent</title>
<polygon fill="#ffffb3" stroke="black" points="1657.94,-122 1552.06,-122 1552.06,-86 1657.94,-86 1657.94,-122"/>
<text text-anchor="middle" x="1605" y="-99.8" font-family="Times,serif" font-size="14.00">AppComponent</text>
</g>
<!-- AppComponent&#45;&gt;AppModule -->
<g id="edge2" class="edge">
<title>AppComponent&#45;&gt;AppModule</title>
<path fill="none" stroke="black" d="M1605,-122.22C1605,-140.83 1605,-167 1605,-167 1605,-167 1031.98,-167 1031.98,-167"/>
<polygon fill="black" stroke="black" points="1031.98,-163.5 1021.98,-167 1031.98,-170.5 1031.98,-163.5"/>
</g>
<!-- CaretakerCardComponent -->
<g id="node3" class="node">
<title>CaretakerCardComponent</title>
<polygon fill="#ffffb3" stroke="black" points="1534.45,-122 1371.55,-122 1371.55,-86 1534.45,-86 1534.45,-122"/>
<text text-anchor="middle" x="1453" y="-99.8" font-family="Times,serif" font-size="14.00">CaretakerCardComponent</text>
</g>
<!-- CaretakerCardComponent&#45;&gt;AppModule -->
<g id="edge3" class="edge">
<title>CaretakerCardComponent&#45;&gt;AppModule</title>
<path fill="none" stroke="black" d="M1453,-122.03C1453,-139.06 1453,-162 1453,-162 1453,-162 1031.98,-162 1031.98,-162"/>
<polygon fill="black" stroke="black" points="1031.98,-158.5 1021.98,-162 1031.98,-165.5 1031.98,-158.5"/>
</g>
<!-- CaretakerDetailComponent -->
<g id="node4" class="node">
<title>CaretakerDetailComponent</title>
<polygon fill="#ffffb3" stroke="black" points="1353.95,-122 1184.05,-122 1184.05,-86 1353.95,-86 1353.95,-122"/>
<text text-anchor="middle" x="1269" y="-99.8" font-family="Times,serif" font-size="14.00">CaretakerDetailComponent</text>
</g>
<!-- CaretakerDetailComponent&#45;&gt;AppModule -->
<g id="edge4" class="edge">
<title>CaretakerDetailComponent&#45;&gt;AppModule</title>
<path fill="none" stroke="black" d="M1269,-122.24C1269,-137.57 1269,-157 1269,-157 1269,-157 1031.71,-157 1031.71,-157"/>
<polygon fill="black" stroke="black" points="1031.71,-153.5 1021.71,-157 1031.71,-160.5 1031.71,-153.5"/>
</g>
<!-- CaretakerPreviewComponent -->
<g id="node5" class="node">
<title>CaretakerPreviewComponent</title>
<polygon fill="#ffffb3" stroke="black" points="1165.61,-122 984.39,-122 984.39,-86 1165.61,-86 1165.61,-122"/>
<text text-anchor="middle" x="1075" y="-99.8" font-family="Times,serif" font-size="14.00">CaretakerPreviewComponent</text>
</g>
<!-- CaretakerPreviewComponent&#45;&gt;AppModule -->
<g id="edge5" class="edge">
<title>CaretakerPreviewComponent&#45;&gt;AppModule</title>
<path fill="none" stroke="black" d="M1003.01,-122.11C1003.01,-122.11 1003.01,-140.99 1003.01,-140.99"/>
<polygon fill="black" stroke="black" points="999.51,-140.99 1003.01,-150.99 1006.51,-140.99 999.51,-140.99"/>
</g>
<!-- CaretakersListComponent -->
<g id="node6" class="node">
<title>CaretakersListComponent</title>
<polygon fill="#ffffb3" stroke="black" points="966.46,-122 803.54,-122 803.54,-86 966.46,-86 966.46,-122"/>
<text text-anchor="middle" x="885" y="-99.8" font-family="Times,serif" font-size="14.00">CaretakersListComponent</text>
</g>
<!-- CaretakersListComponent&#45;&gt;AppModule -->
<g id="edge6" class="edge">
<title>CaretakersListComponent&#45;&gt;AppModule</title>
<path fill="none" stroke="black" d="M952.33,-122.11C952.33,-122.11 952.33,-140.99 952.33,-140.99"/>
<polygon fill="black" stroke="black" points="948.83,-140.99 952.33,-150.99 955.83,-140.99 948.83,-140.99"/>
</g>
<!-- FilterPipe -->
<g id="node7" class="node">
<title>FilterPipe</title>
<polygon fill="#ffffb3" stroke="black" points="785.72,-122 714.28,-122 714.28,-86 785.72,-86 785.72,-122"/>
<text text-anchor="middle" x="750" y="-99.8" font-family="Times,serif" font-size="14.00">FilterPipe</text>
</g>
<!-- FilterPipe&#45;&gt;AppModule -->
<g id="edge7" class="edge">
<title>FilterPipe&#45;&gt;AppModule</title>
<path fill="none" stroke="black" d="M750,-122.24C750,-137.57 750,-157 750,-157 750,-157 928.08,-157 928.08,-157"/>
<polygon fill="black" stroke="black" points="928.08,-160.5 938.08,-157 928.08,-153.5 928.08,-160.5"/>
</g>
<!-- FooterComponent -->
<g id="node8" class="node">
<title>FooterComponent</title>
<polygon fill="#ffffb3" stroke="black" points="695.88,-122 578.12,-122 578.12,-86 695.88,-86 695.88,-122"/>
<text text-anchor="middle" x="637" y="-99.8" font-family="Times,serif" font-size="14.00">FooterComponent</text>
</g>
<!-- FooterComponent&#45;&gt;AppModule -->
<g id="edge8" class="edge">
<title>FooterComponent&#45;&gt;AppModule</title>
<path fill="none" stroke="black" d="M637,-122.03C637,-139.06 637,-162 637,-162 637,-162 928.28,-162 928.28,-162"/>
<polygon fill="black" stroke="black" points="928.28,-165.5 938.28,-162 928.28,-158.5 928.28,-165.5"/>
</g>
<!-- NavbarComponent -->
<g id="node9" class="node">
<title>NavbarComponent</title>
<polygon fill="#ffffb3" stroke="black" points="560.03,-122 437.97,-122 437.97,-86 560.03,-86 560.03,-122"/>
<text text-anchor="middle" x="499" y="-99.8" font-family="Times,serif" font-size="14.00">NavbarComponent</text>
</g>
<!-- NavbarComponent&#45;&gt;AppModule -->
<g id="edge9" class="edge">
<title>NavbarComponent&#45;&gt;AppModule</title>
<path fill="none" stroke="black" d="M499,-122.22C499,-140.83 499,-167 499,-167 499,-167 928.16,-167 928.16,-167"/>
<polygon fill="black" stroke="black" points="928.16,-170.5 938.16,-167 928.16,-163.5 928.16,-170.5"/>
</g>
<!-- SortPipe -->
<g id="node10" class="node">
<title>SortPipe</title>
<polygon fill="#ffffb3" stroke="black" points="420.22,-122 355.78,-122 355.78,-86 420.22,-86 420.22,-122"/>
<text text-anchor="middle" x="388" y="-99.8" font-family="Times,serif" font-size="14.00">SortPipe</text>
</g>
<!-- SortPipe&#45;&gt;AppModule -->
<g id="edge10" class="edge">
<title>SortPipe&#45;&gt;AppModule</title>
<path fill="none" stroke="black" d="M388,-122.22C388,-142.37 388,-172 388,-172 388,-172 927.9,-172 927.9,-172"/>
<polygon fill="black" stroke="black" points="927.9,-175.5 937.9,-172 927.9,-168.5 927.9,-175.5"/>
</g>
<!-- UserLoginComponent -->
<g id="node11" class="node">
<title>UserLoginComponent</title>
<polygon fill="#ffffb3" stroke="black" points="337.7,-122 196.3,-122 196.3,-86 337.7,-86 337.7,-122"/>
<text text-anchor="middle" x="267" y="-99.8" font-family="Times,serif" font-size="14.00">UserLoginComponent</text>
</g>
<!-- UserLoginComponent&#45;&gt;AppModule -->
<g id="edge11" class="edge">
<title>UserLoginComponent&#45;&gt;AppModule</title>
<path fill="none" stroke="black" d="M267,-122.04C267,-143.66 267,-177 267,-177 267,-177 928.32,-177 928.32,-177"/>
<polygon fill="black" stroke="black" points="928.32,-180.5 938.32,-177 928.32,-173.5 928.32,-180.5"/>
</g>
<!-- UserRegisterComponent -->
<g id="node12" class="node">
<title>UserRegisterComponent</title>
<polygon fill="#ffffb3" stroke="black" points="178.41,-122 23.59,-122 23.59,-86 178.41,-86 178.41,-122"/>
<text text-anchor="middle" x="101" y="-99.8" font-family="Times,serif" font-size="14.00">UserRegisterComponent</text>
</g>
<!-- UserRegisterComponent&#45;&gt;AppModule -->
<g id="edge12" class="edge">
<title>UserRegisterComponent&#45;&gt;AppModule</title>
<path fill="none" stroke="black" d="M101,-122.09C101,-145.13 101,-182 101,-182 101,-182 928.2,-182 928.2,-182"/>
<polygon fill="black" stroke="black" points="928.2,-185.5 938.2,-182 928.2,-178.5 928.2,-185.5"/>
</g>
<!-- AppComponent  -->
<g id="node14" class="node">
<title>AppComponent </title>
<polygon fill="#80b1d3" stroke="black" points="1034.44,-252 925.56,-252 925.56,-216 1034.44,-216 1034.44,-252"/>
<text text-anchor="middle" x="980" y="-229.8" font-family="Times,serif" font-size="14.00">AppComponent </text>
</g>
<!-- AppModule&#45;&gt;AppComponent  -->
<g id="edge13" class="edge">
<title>AppModule&#45;&gt;AppComponent </title>
<path fill="none" stroke="black" stroke-dasharray="1,5" d="M980,-187.11C980,-187.11 980,-205.99 980,-205.99"/>
<polygon fill="black" stroke="black" points="976.5,-205.99 980,-215.99 983.5,-205.99 976.5,-205.99"/>
</g>
<!-- AuthService -->
<g id="node15" class="node">
<title>AuthService</title>
<ellipse fill="#fdb462" stroke="black" cx="2093" cy="-104" rx="59.11" ry="18"/>
<text text-anchor="middle" x="2093" y="-99.8" font-family="Times,serif" font-size="14.00">AuthService</text>
</g>
<!-- AuthService&#45;&gt;AppModule -->
<g id="edge14" class="edge">
<title>AuthService&#45;&gt;AppModule</title>
<path fill="none" stroke="black" d="M2093,-122.09C2093,-145.13 2093,-182 2093,-182 2093,-182 1031.94,-182 1031.94,-182"/>
<polygon fill="black" stroke="black" points="1031.94,-178.5 1021.94,-182 1031.94,-185.5 1031.94,-178.5"/>
</g>
<!-- CaretakerService -->
<g id="node16" class="node">
<title>CaretakerService</title>
<ellipse fill="#fdb462" stroke="black" cx="1938" cy="-104" rx="77.54" ry="18"/>
<text text-anchor="middle" x="1938" y="-99.8" font-family="Times,serif" font-size="14.00">CaretakerService</text>
</g>
<!-- CaretakerService&#45;&gt;AppModule -->
<g id="edge15" class="edge">
<title>CaretakerService&#45;&gt;AppModule</title>
<path fill="none" stroke="black" d="M1938,-122.04C1938,-143.66 1938,-177 1938,-177 1938,-177 1031.78,-177 1031.78,-177"/>
<polygon fill="black" stroke="black" points="1031.78,-173.5 1021.78,-177 1031.78,-180.5 1031.78,-173.5"/>
</g>
</g>
</svg>
